<svg preserveAspectRatio="xMidYMax slice" width="100%" height="100%" overflow="visible" style="display: block;" viewBox="0 0 250 162" fill="none" xmlns="http://www.w3.org/2000/svg">
<!-- Ball shadow (rendered first = behind everything) -->
<ellipse cx="175" cy="95" rx="30" ry="8" fill="#C9449E"/>
<!-- Tennis ball (rendered second = behind paddle) -->
<g transform="translate(90, 15) scale(0.55)">
<path d="M186.004 89.9667C199.131 69.6433 193.318 42.537 173.008 29.4109C152.697 16.2848 125.591 22.1098 112.465 42.4203C99.3385 62.7437 105.151 89.85 125.461 102.976C145.772 116.102 172.879 110.277 186.018 89.9667H186.004Z" fill="#CCFF00"/>
<path d="M122.122 44.0645L121.708 44.6213C118.005 49.5922 112.75 53.0869 106.847 54.6403C106.472 55.9995 106.187 57.3457 105.954 58.7178C113.423 57.2421 120.128 53.0481 124.737 46.8734L125.151 46.3165C129.863 39.9994 137.06 36.0517 144.905 35.4563C152.762 34.8737 160.465 37.7343 166.044 43.2876C171.623 48.841 174.523 56.53 173.966 64.3875C173.423 72.2451 169.5 79.4684 163.209 84.2062L162.665 84.6208C155.494 90.0059 151.028 98.2384 150.42 107.183C150.355 108.089 150.342 108.983 150.368 109.876C151.623 109.837 152.879 109.747 154.122 109.604C154.122 108.892 154.122 108.167 154.173 107.442C154.717 99.5849 158.64 92.3616 164.931 87.6238L165.474 87.2098C172.646 81.8118 177.112 73.5919 177.72 64.634C178.341 55.6891 175.041 46.9254 168.685 40.6083C162.329 34.2782 153.552 31.0289 144.607 31.6891C135.662 32.3493 127.468 36.8542 122.096 44.0386L122.122 44.0645Z" fill="url(#paint_ball_linear)"/>
<path d="M183.286 38.6924C183.428 46.4334 181.953 54.3297 178.652 61.8895C167.792 86.7954 140.931 99.753 115.365 93.9925C119.611 99.1316 125.086 103.404 131.624 106.252C153.798 115.921 179.597 105.785 189.267 83.6107C195.998 68.1804 193.124 50.99 183.286 38.6924Z" fill="#A3CC00"/>
<path d="M154.186 107.442C154.73 99.5849 158.652 92.3615 164.943 87.6237L165.5 87.2097C172.672 81.8117 177.137 73.5918 177.746 64.634C177.759 64.3492 177.771 64.0638 177.784 63.7661C176.05 67.3777 173.953 70.7304 171.584 73.7725C169.733 77.8372 166.872 81.4229 163.221 84.1802L162.665 84.5948C155.507 89.9799 151.028 98.2124 150.419 107.157C150.355 108.063 150.342 108.957 150.368 109.85H150.419C150.885 109.837 151.364 109.798 151.83 109.772C152.011 109.759 152.206 109.747 152.4 109.734C152.853 109.695 153.293 109.656 153.746 109.604C153.875 109.591 153.992 109.578 154.121 109.552C154.121 108.84 154.122 108.129 154.173 107.404L154.186 107.442Z" fill="#EBFF99"/>
</g>
<!-- Racket (rendered second = in front) -->
<g transform="translate(0, 25) scale(0.85)">
<path d="M141.942 4.53785C112 -4.60216 49.2804 -2.53213 18.219 35.3079C-18.421 79.9279 13.7283 146.828 1.09899 162.238H26.8802C55.1042 146.648 143.158 122.968 175.68 83.3679C206.752 45.5379 171.894 13.6779 141.942 4.54785V4.53785ZM157.643 47.5676C158.72 46.2576 160.95 45.6079 162.624 46.1179C164.299 46.6279 164.779 48.1077 163.712 49.4177C162.635 50.7277 160.406 51.3779 158.731 50.8679C157.056 50.3579 156.576 48.8779 157.643 47.5779V47.5676ZM136.544 30.8079C137.622 29.4979 139.851 28.8479 141.526 29.3579C143.2 29.8679 143.68 31.3477 142.614 32.6477C141.536 33.9577 139.307 34.6079 137.632 34.0979C135.958 33.5879 135.478 32.1079 136.544 30.8079ZM131.702 39.0081C133.376 39.5181 133.856 40.9976 132.79 42.2976C131.712 43.6076 129.483 44.2578 127.808 43.7478C126.134 43.2378 125.654 41.7578 126.72 40.4578C127.798 39.1478 130.027 38.4981 131.702 39.0081ZM122.112 24.0779C123.19 22.7679 125.419 22.1179 127.094 22.6379C128.768 23.1579 129.248 24.6277 128.182 25.9277C127.104 27.2377 124.875 27.8879 123.2 27.3779C121.526 26.8679 121.046 25.3879 122.112 24.0779ZM124.118 53.3679C123.04 54.6779 120.811 55.3276 119.136 54.8176C117.462 54.3076 116.982 52.8276 118.048 51.5276C119.126 50.2176 121.355 49.5679 123.03 50.0779C124.704 50.5879 125.184 52.0679 124.118 53.3679ZM113.803 34.1877C114.88 32.8777 117.11 32.228 118.784 32.738C120.459 33.248 120.939 34.7276 119.872 36.0276C118.795 37.3376 116.566 37.9878 114.891 37.4778C113.216 36.9678 112.736 35.4877 113.803 34.1877ZM105.728 20.8679C106.806 19.5579 109.035 18.9077 110.71 19.4277C112.384 19.9377 112.864 21.4178 111.798 22.7178C110.72 24.0278 108.491 24.6777 106.816 24.1677C105.142 23.6577 104.662 22.1779 105.728 20.8779V20.8679ZM109.334 44.2581C111.008 44.7681 111.488 46.2479 110.422 47.5579C109.344 48.8679 107.115 49.5181 105.44 49.0081C103.766 48.4981 103.286 47.018 104.352 45.718C105.43 44.408 107.659 43.7578 109.334 44.2678V44.2581ZM97.8349 31.6379C98.9123 30.3279 101.142 29.678 102.816 30.198C104.491 30.718 104.971 32.188 103.904 33.488C102.827 34.798 100.598 35.4477 98.923 34.9377C97.2483 34.4277 96.7683 32.9479 97.8349 31.6379ZM96.1498 55.698C97.2271 54.388 99.4564 53.7378 101.131 54.2478C102.806 54.7578 103.286 56.2376 102.219 57.5476C101.142 58.8576 98.9125 59.5078 97.2378 58.9978C95.5631 58.4878 95.0831 57.0078 96.1498 55.7078V55.698ZM93.4831 41.0476C95.1578 41.5576 95.6378 43.0377 94.5711 44.3377C93.4938 45.6477 91.2643 46.2978 89.5896 45.7878C87.915 45.2778 87.4349 43.798 88.5016 42.488C89.5789 41.178 91.8084 40.5278 93.4831 41.0378V41.0476ZM94.2938 67.1877C93.2165 68.4977 90.9869 69.1479 89.3123 68.6379C87.6376 68.1279 87.1576 66.6479 88.2243 65.3479C89.3016 64.0379 91.5311 63.3877 93.2058 63.8977C94.8804 64.4077 95.3605 65.888 94.2938 67.198V67.1877ZM85.4297 20.1477C86.5071 18.8377 88.7363 18.1878 90.411 18.6978C92.0856 19.2078 92.5657 20.6878 91.499 21.9878C90.4217 23.2978 88.1924 23.9477 86.5177 23.4377C84.8431 22.9277 84.3631 21.4477 85.4297 20.1477ZM80.4485 30.8176C81.5258 29.5076 83.7551 28.8579 85.4297 29.3679C87.1044 29.8779 87.5844 31.358 86.5177 32.658C85.4404 33.968 83.2109 34.6177 81.5362 34.1077C79.8616 33.5977 79.3818 32.1176 80.4485 30.8176ZM78.8271 53.3679C79.9045 52.0579 82.1337 51.408 83.8084 51.928C85.483 52.438 85.9631 53.918 84.8964 55.218C83.8191 56.528 81.5898 57.1777 79.9151 56.6677C78.2405 56.1577 77.7605 54.6779 78.8271 53.3679ZM75.9896 80.238C77.067 78.928 79.2965 78.2778 80.9711 78.7878C82.6458 79.2978 83.1256 80.7776 82.0589 82.0876C80.9816 83.3976 78.7523 84.0478 77.0776 83.5378C75.403 83.0278 74.923 81.548 75.9896 80.238ZM74.4644 70.5081C72.7897 69.9981 72.3097 68.5178 73.3763 67.2078C74.4537 65.8978 76.6829 65.2481 78.3576 65.7581C80.0323 66.2681 80.5123 67.7479 79.4456 69.0579C78.3683 70.3679 76.139 71.0181 74.4644 70.5081ZM76.5657 44.7776C75.4883 46.0876 73.2591 46.7378 71.5844 46.2278C69.9097 45.7178 69.4297 44.238 70.4964 42.928C71.5737 41.618 73.803 40.968 75.4776 41.488C77.1523 41.998 77.6323 43.4776 76.5657 44.7776ZM69.9631 20.8079C71.0404 19.4979 73.2696 18.8479 74.9443 19.3579C76.619 19.8679 77.099 21.3477 76.0323 22.6577C74.955 23.9677 72.7257 24.6179 71.0511 24.0979C69.3764 23.5879 68.8964 22.1079 69.9631 20.8079ZM62.3469 32.8777C63.4242 31.5677 65.6538 30.918 67.3284 31.428C69.0031 31.938 69.4831 33.418 68.4164 34.718C67.3391 36.028 65.1096 36.6777 63.4349 36.1677C61.7603 35.6577 61.2802 34.1777 62.3469 32.8777ZM62.2831 55.5676C63.3604 54.2576 65.5897 53.6079 67.2644 54.1179C68.939 54.6279 69.419 56.108 68.3524 57.408C67.275 58.718 65.0458 59.3677 63.3711 58.8577C61.6965 58.3477 61.2164 56.8679 62.2831 55.5579V55.5676ZM66.7417 82.8079C65.6644 84.1179 63.4351 84.7681 61.7604 84.2581C60.0858 83.7481 59.6058 82.2678 60.6724 80.9578C61.7498 79.6478 63.979 78.9981 65.6537 79.5081C67.3283 80.0181 67.8084 81.4976 66.7417 82.7976V82.8079ZM62.9016 67.3479C64.5763 67.8579 65.0563 69.3377 63.9896 70.6477C62.9123 71.9577 60.683 72.6079 59.0084 72.0979C57.3337 71.5879 56.8537 70.1079 57.9203 68.8079C58.9977 67.4979 61.2269 66.8477 62.9016 67.3577V67.3479ZM54.7417 23.3879C55.819 22.0779 58.0483 21.4277 59.7229 21.9377C61.3976 22.4477 61.8776 23.9278 60.811 25.2278C59.7336 26.5378 57.5044 27.1877 55.8297 26.6777C54.1551 26.1677 53.675 24.6879 54.7417 23.3879ZM56.8003 43.6877C58.475 44.1977 58.955 45.6778 57.8883 46.9778C56.811 48.2878 54.5817 48.938 52.9071 48.428C51.2324 47.918 50.7524 46.4377 51.819 45.1277C52.8964 43.8177 55.1256 43.1677 56.8003 43.6877ZM33.3443 98.7478C34.4216 97.4378 36.6509 96.7876 38.3256 97.2976C40.0002 97.8076 40.4802 99.2879 39.4136 100.598C38.3362 101.908 36.107 102.558 34.4323 102.048C32.7577 101.538 32.2776 100.058 33.3443 98.7478ZM30.0164 91.7976C28.3418 91.2876 27.8617 89.8078 28.9284 88.4978C30.0057 87.1878 32.235 86.5376 33.9097 87.0476C35.5843 87.5576 36.0644 89.0376 34.9977 90.3376C33.9204 91.6476 31.6911 92.2978 30.0164 91.7878V91.7976ZM40.2776 107.218C41.355 105.908 43.5842 105.258 45.2589 105.768C46.9336 106.278 47.4136 107.758 46.3469 109.068C45.2696 110.378 43.0403 111.028 41.3657 110.508C39.691 109.998 39.211 108.518 40.2776 107.218ZM47.1896 69.3279C48.8643 69.8379 49.3443 71.3177 48.2776 72.6277C47.2003 73.9377 44.9711 74.5879 43.2964 74.0779C41.6217 73.5679 41.1417 72.0876 42.2084 70.7776C43.2857 69.4676 45.5149 68.8179 47.1896 69.3279ZM46.0909 57.2976C47.1683 55.9876 49.3978 55.3379 51.0724 55.8479C52.7471 56.3579 53.2271 57.8379 52.1604 59.1379C51.0831 60.4479 48.8536 61.0977 47.1789 60.5877C45.5043 60.0777 45.0243 58.5976 46.0909 57.2976ZM46.5071 86.0676C44.8324 85.5576 44.3524 84.0778 45.419 82.7678C46.4964 81.4578 48.7256 80.8076 50.4003 81.3176C52.075 81.8276 52.555 83.3077 51.4883 84.6077C50.411 85.9177 48.1817 86.5679 46.5071 86.0579V86.0676ZM47.6378 114.768C48.7151 113.458 50.9444 112.808 52.619 113.318C54.2937 113.828 54.7737 115.308 53.7071 116.608C52.6297 117.918 50.4002 118.568 48.7256 118.058C47.0509 117.548 46.5711 116.068 47.6378 114.758V114.768ZM50.8058 97.5979C49.1311 97.0879 48.6511 95.6076 49.7177 94.2976C50.7951 92.9876 53.0243 92.3377 54.699 92.8577C56.3737 93.3777 56.8537 94.8477 55.787 96.1477C54.7097 97.4577 52.4804 98.1079 50.8058 97.5979ZM44.8003 33.4578C45.8776 32.1478 48.1071 31.4981 49.7818 32.0081C51.4565 32.5181 51.9362 33.9976 50.8696 35.2976C49.7922 36.6076 47.563 37.2578 45.8883 36.7478C44.2136 36.2378 43.7336 34.7578 44.8003 33.4578ZM37.0349 44.1877C38.1123 42.8777 40.3418 42.228 42.0164 42.738C43.6911 43.248 44.1711 44.7276 43.1045 46.0276C42.0271 47.3376 39.7976 47.9878 38.1229 47.4778C36.4483 46.9678 35.9683 45.488 37.0349 44.178V44.1877ZM31.7123 55.2878C32.7896 53.9778 35.0191 53.3277 36.6938 53.8377C38.3684 54.3477 38.8485 55.8279 37.7818 57.1379C36.7045 58.4479 34.475 59.0977 32.8003 58.5877C31.1256 58.0777 30.6456 56.5976 31.7123 55.2976V55.2878ZM28.5657 66.6077C29.643 65.2977 31.8722 64.648 33.5469 65.158C35.2216 65.668 35.7016 67.1478 34.6349 68.4578C33.5576 69.7678 31.3283 70.418 29.6537 69.908C27.979 69.398 27.499 67.9177 28.5657 66.6077ZM27.8404 77.408C28.9177 76.098 31.147 75.4478 32.8216 75.9578C34.4963 76.4678 34.9763 77.9478 33.9097 79.2478C32.8323 80.5578 30.6031 81.208 28.9284 80.698C27.2537 80.188 26.7737 78.7077 27.8404 77.3977V77.408ZM56.5336 136.138C56.2243 136.418 55.8405 136.668 55.3711 136.878C55.3391 136.888 55.307 136.908 55.275 136.918C53.5897 137.668 51.9576 138.408 50.3789 139.118C42.4536 142.678 35.7763 145.758 30.411 148.608C28.267 149.748 26.3257 150.858 24.6084 151.948C23.915 152.388 23.1363 152.688 22.3789 152.818C21.9949 152.888 21.6216 152.908 21.2589 152.898C20.8962 152.888 20.5549 152.828 20.2349 152.728C19.9149 152.628 19.6376 152.498 19.4029 152.328C19.1682 152.158 18.9765 151.958 18.8378 151.738C18.5605 151.288 18.4856 150.738 18.6456 150.128C19.0509 148.638 19.339 147.028 19.5524 145.298C20.0857 140.968 20.1177 135.868 20.0537 129.858C20.043 128.658 20.0216 127.418 20.0003 126.148V126.078C20.0003 125.368 20.4162 124.718 21.0136 124.188C26.4322 127.318 32.1177 129.828 37.643 131.518C43.179 133.208 49.8778 134.478 57.2378 135.248C57.0671 135.558 56.8323 135.858 56.5123 136.128H56.5336V136.138ZM58.1763 106.548C56.5017 106.038 56.0216 104.558 57.0883 103.258C58.1656 101.948 60.3949 101.298 62.0696 101.808C63.7442 102.318 64.2243 103.798 63.1576 105.108C62.0803 106.418 59.851 107.068 58.1763 106.558V106.548ZM68.0216 115.688C66.9443 116.998 64.7151 117.648 63.0404 117.128C61.3657 116.618 60.8857 115.138 61.9524 113.838C63.0297 112.528 65.259 111.878 66.9336 112.388C68.6083 112.898 69.0883 114.378 68.0216 115.688ZM67.3391 95.3879C65.6644 94.8779 65.1844 93.3979 66.2511 92.0979C67.3284 90.7879 69.5577 90.1377 71.2323 90.6477C72.907 91.1577 73.387 92.6377 72.3203 93.9377C71.243 95.2477 69.0138 95.8979 67.3391 95.3879ZM74.3576 104.768C72.6829 104.258 72.2029 102.778 73.2696 101.468C74.3469 100.158 76.5764 99.5078 78.2511 100.018C79.9257 100.528 80.4058 102.008 79.3391 103.308C78.2618 104.618 76.0323 105.268 74.3576 104.758V104.768ZM83.3071 113.988C82.2297 115.298 80.0002 115.948 78.3256 115.438C76.6509 114.928 76.1711 113.448 77.2378 112.138C78.3151 110.828 80.5444 110.178 82.219 110.688C83.8937 111.198 84.3737 112.678 83.3071 113.988ZM85.3123 91.4377C83.6376 90.9277 83.1576 89.4479 84.2243 88.1379C85.3016 86.8279 87.5311 86.1777 89.2058 86.6877C90.8804 87.1977 91.3605 88.6778 90.2938 89.9778C89.2165 91.2878 86.9869 91.938 85.3123 91.428V91.4377ZM90.987 96.678C92.0644 95.368 94.2936 94.718 95.9683 95.238C97.6429 95.748 98.123 97.2276 97.0563 98.5276C95.979 99.8376 93.7497 100.488 92.075 99.9778C90.4004 99.4678 89.9204 97.988 90.987 96.678ZM99.4136 109.998C98.3362 111.308 96.107 111.958 94.4323 111.448C92.7577 110.938 92.2776 109.458 93.3443 108.148C94.4216 106.838 96.6509 106.188 98.3256 106.698C100 107.208 100.48 108.688 99.4136 109.988V109.998ZM95.755 77.0081C94.0803 76.4981 93.6003 75.0178 94.667 73.7078C95.7443 72.3978 97.9738 71.7481 99.6485 72.2581C101.323 72.7681 101.803 74.2476 100.736 75.5476C99.6589 76.8576 97.4297 77.5078 95.755 76.9978V77.0081ZM102.934 85.4978C101.259 84.9878 100.779 83.5078 101.846 82.2078C102.923 80.8978 105.152 80.2481 106.827 80.7581C108.502 81.2681 108.982 82.7479 107.915 84.0579C106.838 85.3679 104.608 86.0181 102.934 85.5081V85.4978ZM114.635 103.888C113.558 105.198 111.328 105.848 109.654 105.338C107.979 104.828 107.499 103.348 108.566 102.038C109.643 100.728 111.872 100.078 113.547 100.598C115.222 101.108 115.702 102.588 114.635 103.888ZM114.72 92.908C113.643 94.218 111.414 94.8677 109.739 94.3577C108.064 93.8477 107.584 92.3679 108.651 91.0579C109.728 89.7479 111.958 89.0977 113.632 89.6077C115.307 90.1177 115.787 91.598 114.72 92.908ZM110.656 66.0476C108.982 65.5376 108.502 64.0578 109.568 62.7478C110.646 61.4378 112.875 60.7876 114.55 61.2976C116.224 61.8076 116.704 63.2876 115.638 64.5876C114.56 65.8976 112.331 66.5478 110.656 66.0378V66.0476ZM117.686 75.4377C116.011 74.9277 115.531 73.4479 116.598 72.1379C117.675 70.8279 119.904 70.1777 121.579 70.6877C123.254 71.1977 123.734 72.6778 122.667 73.9778C121.59 75.2878 119.36 75.938 117.686 75.428V75.4377ZM128.374 97.0676C127.296 98.3776 125.067 99.0278 123.392 98.5178C121.718 98.0078 121.238 96.528 122.304 95.218C123.382 93.908 125.611 93.2578 127.286 93.7678C128.96 94.2778 129.44 95.7579 128.374 97.0579V97.0676ZM130.102 82.9377C129.024 84.2477 126.795 84.8979 125.12 84.3879C123.446 83.8779 122.966 82.3976 124.032 81.0876C125.11 79.7776 127.339 79.1279 129.014 79.6379C130.688 80.1479 131.168 81.628 130.102 82.928V82.9377ZM129.355 63.8577C127.68 63.3477 127.2 61.8679 128.267 60.5579C129.344 59.2479 131.574 58.5977 133.248 59.1077C134.923 59.6177 135.403 61.0977 134.336 62.3977C133.259 63.7077 131.03 64.3579 129.355 63.8479V63.8577ZM141.355 88.7478C140.278 90.0578 138.048 90.708 136.374 90.198C134.699 89.688 134.219 88.208 135.286 86.908C136.363 85.598 138.592 84.9478 140.267 85.4578C141.942 85.9678 142.422 87.4481 141.355 88.7581V88.7478ZM142.635 72.8479C141.558 74.1579 139.328 74.8076 137.654 74.2976C135.979 73.7876 135.499 72.3081 136.566 71.0081C137.643 69.6981 139.872 69.0479 141.547 69.5579C143.222 70.0679 143.702 71.5479 142.635 72.8479ZM144.278 50.2976C143.2 51.6076 140.971 52.2578 139.296 51.7478C137.622 51.2378 137.142 49.7578 138.208 48.4578C139.286 47.1478 141.515 46.4981 143.19 47.0081C144.864 47.5181 145.344 48.9979 144.278 50.3079V50.2976ZM146.358 58.5178C147.435 57.2078 149.664 56.5576 151.339 57.0676C153.014 57.5776 153.494 59.0579 152.427 60.3679C151.35 61.6779 149.12 62.3276 147.446 61.8176C145.771 61.3076 145.291 59.8276 146.358 58.5276V58.5178ZM152.736 79.4978C151.659 80.8078 149.43 81.458 147.755 80.948C146.08 80.438 145.6 78.9577 146.667 77.6477C147.744 76.3377 149.974 75.688 151.648 76.198C153.323 76.708 153.803 78.188 152.736 79.488V79.4978ZM154.923 40.8079C153.846 42.1179 151.616 42.7681 149.942 42.2581C148.267 41.7481 147.787 40.268 148.854 38.968C149.931 37.658 152.16 37.0078 153.835 37.5178C155.51 38.0278 155.99 39.5076 154.923 40.8176V40.8079ZM162.176 69.2776C161.099 70.5876 158.87 71.2378 157.195 70.7278C155.52 70.2178 155.04 68.7377 156.107 67.4377C157.184 66.1277 159.414 65.478 161.088 65.988C162.763 66.498 163.243 67.9778 162.176 69.2878V69.2776ZM169.451 58.3879C168.374 59.6979 166.144 60.3477 164.47 59.8377C162.795 59.3277 162.315 57.8478 163.382 56.5378C164.459 55.2278 166.688 54.5777 168.363 55.0877C170.038 55.5977 170.518 57.0779 169.451 58.3879Z" fill="#7A0051"/>
</g>
<defs>
<linearGradient id="paint_ball_linear" x1="125.669" y1="64.1936" x2="193.189" y2="81.9281" gradientUnits="userSpaceOnUse">
<stop stop-color="white"/>
<stop offset="0.35" stop-color="#FBFFEC"/>
<stop offset="1" stop-color="#F2FFBF"/>
</linearGradient>
</defs>
</svg>
