<svg preserveAspectRatio="xMidYMax slice" width="100%" height="100%" overflow="visible" style="display: block;" viewBox="0 0 1126.33 170" fill="none" xmlns="http://www.w3.org/2000/svg">
<g id="Frame 427320037">
<path id="Vector" d="M1126.33 0.417847L0 170C0.436111 170 0.799413 170 1.23552 170H472.962L1034.89 85.4102C1072.25 61.0308 1103.36 32.3124 1126.26 0.417847H1126.33Z" fill="var(--fill-0, #F5F7FF)"/>
<g id="Frame 427320036">
<path id="Vector_2" d="M573.752 142.157C539.713 142.322 512.08 135.629 512.039 127.253C512.039 118.877 539.549 111.937 573.588 111.773C607.626 111.609 635.259 118.302 635.3 126.678C635.342 135.054 607.79 141.993 573.752 142.157Z" fill="var(--fill-0, #3E505C)"/>
<path id="Vector_3" d="M546.988 135.685C517.958 135.808 494.308 112.404 494.144 83.3335C494.021 54.3042 517.425 30.6537 546.495 30.4895C575.524 30.3663 599.175 53.7704 599.339 82.8408C599.462 111.87 576.058 135.52 546.988 135.685Z" fill="var(--fill-0, #CCFF00)"/>
<path id="Vector_4" d="M520.166 116.679C514.459 112.203 507.766 109.534 500.827 108.754C501.484 109.945 502.223 111.095 502.962 112.244C508.464 113.23 513.679 115.57 518.236 119.142L522.096 122.181C531.54 129.572 543.611 132.117 555.231 129.079C566.851 126.041 576.172 117.952 580.811 106.907L581.386 105.552C586.026 94.4655 585.246 82.1476 579.21 71.7595C573.215 61.3713 562.909 54.5554 551.002 53.0362L546.157 52.4203C535.933 51.1064 527.064 45.5633 521.439 37.0639C520.536 37.5567 519.632 38.0904 518.729 38.6653C524.847 47.9858 534.578 54.1038 545.746 55.5409L550.591 56.1567C561.513 57.5528 570.957 63.8349 576.459 73.3608C581.961 82.8867 582.7 94.2192 578.43 104.361L577.855 105.716C573.626 115.899 565.044 123.29 554.41 126.082C543.734 128.874 532.648 126.533 523.985 119.758L520.125 116.72L520.166 116.679Z" fill="var(--fill-0, white)"/>
</g>
</g>
</svg>
