<svg preserveAspectRatio="xMidYMax slice" width="100%" height="100%" overflow="visible" style="display: block;" viewBox="0 0 645.578 316.764" fill="none" xmlns="http://www.w3.org/2000/svg">
<g id="Group 132" transform="translate(-150, 100) rotate(-10, 322.789, 158.382) scale(1.2)">
<path id="Vector" d="M645.578 316.764H0V0.000195901H197.151L645.578 263.138V316.764Z" fill="var(--fill-0, #005475)"/>
<g id="Vector_2">
</g>
<path id="Vector_3" d="M645.578 263.138V270.385L184.773 0H197.151L645.578 263.138Z" fill="var(--fill-0, white)"/>
<path id="Vector_4" d="M471.582 168.298L418.369 137.069L471.582 105.754V168.298Z" fill="var(--fill-0, #0082B5)"/>
<path id="Vector_5" d="M117.96 316.747L418.369 137.069L471.582 168.298L219.927 316.764H117.96V316.747Z" fill="var(--fill-0, #0082B5)"/>
<path id="Vector_6" d="M203.744 265.272L255.614 295.709L249.451 299.342L197.581 268.905L203.744 265.272Z" fill="var(--fill-0, #335FFF)"/>
<path id="Vector_7" d="M248.93 119.239C245.676 121.495 246.468 125.092 250.703 127.296C254.938 129.482 261.032 129.431 264.286 127.175C267.54 124.92 266.748 121.322 262.513 119.119C258.278 116.932 252.184 116.984 248.93 119.239Z" fill="var(--fill-0, #0F39D4)"/>
<path id="Vector_8" d="M423.586 132.955L472.237 161.515L471.582 168.298L415.288 135.348L423.586 132.955Z" fill="var(--fill-0, #33C5FF)"/>
<path id="Vector_9" d="M255.615 295.709L291.492 316.764H279.131L249.451 299.342L255.615 295.709Z" fill="var(--fill-0, white)"/>
<path id="Vector_10" d="M106.58 114.397L246.714 29.0949L246.766 36.377L93.0666 129.942L34.2068 165.785L200.697 263.483L194.534 267.115L28.1297 169.469L0 186.599V179.282L106.58 114.397Z" fill="var(--fill-0, white)"/>
<path id="Vector_11" d="M260.032 125.798C264.612 125.798 268.33 122.08 268.33 117.501C268.33 112.921 264.612 109.203 260.032 109.203C255.453 109.203 251.735 112.921 251.735 117.501C251.735 122.08 255.453 125.798 260.032 125.798Z" fill="var(--fill-0, #CCFF00)"/>
<path id="Vector_12" d="M477.831 106.477C477.831 102.948 473.992 100.744 470.945 102.535L106.942 316.746H119.303L471.582 109.404V168.28L477.831 164.699V106.477Z" fill="var(--fill-0, #91E0FF)"/>
</g>
</svg>
