<svg preserveAspectRatio="xMidYMax slice" width="100%" height="100%" overflow="visible" style="display: block;" viewBox="0 0 480.578 207.079" fill="none" xmlns="http://www.w3.org/2000/svg">
<g id="Frame 427320039">
<path id="Vector" d="M181.953 82.4977C211.39 82.653 233.383 91.1058 231.092 101.358C228.801 111.623 203.079 119.818 173.643 119.65C144.206 119.494 122.213 111.041 124.504 100.789C126.795 90.5233 152.517 82.3294 181.953 82.4977Z" fill="var(--fill-0, #0F39D4)"/>
<path id="Vector_2" d="M186.004 89.9667C199.131 69.6433 193.318 42.537 173.008 29.4109C152.697 16.2848 125.591 22.1098 112.465 42.4203C99.3385 62.7437 105.151 89.85 125.461 102.976C145.772 116.102 172.879 110.277 186.018 89.9667H186.004Z" fill="var(--fill-0, #CCFF00)"/>
<path id="Vector_3" d="M122.122 44.0645L121.708 44.6213C118.005 49.5922 112.75 53.0869 106.847 54.6403C106.472 55.9995 106.187 57.3457 105.954 58.7178C113.423 57.2421 120.128 53.0481 124.737 46.8734L125.151 46.3165C129.863 39.9994 137.06 36.0517 144.905 35.4563C152.762 34.8737 160.465 37.7343 166.044 43.2876C171.623 48.841 174.523 56.53 173.966 64.3875C173.423 72.2451 169.5 79.4684 163.209 84.2062L162.665 84.6208C155.494 90.0059 151.028 98.2384 150.42 107.183C150.355 108.089 150.342 108.983 150.368 109.876C151.623 109.837 152.879 109.747 154.122 109.604C154.122 108.892 154.122 108.167 154.173 107.442C154.717 99.5849 158.64 92.3616 164.931 87.6238L165.474 87.2098C172.646 81.8118 177.112 73.5919 177.72 64.634C178.341 55.6891 175.041 46.9254 168.685 40.6083C162.329 34.2782 153.552 31.0289 144.607 31.6891C135.662 32.3493 127.468 36.8542 122.096 44.0386L122.122 44.0645Z" fill="url(#paint0_linear_1613_34556)"/>
<path id="Vector_4" d="M183.286 38.6924C183.428 46.4334 181.953 54.3297 178.652 61.8895C167.792 86.7954 140.931 99.753 115.365 93.9925C119.611 99.1316 125.086 103.404 131.624 106.252C153.798 115.921 179.597 105.785 189.267 83.6107C195.998 68.1804 193.124 50.99 183.286 38.6924Z" fill="var(--fill-0, #A3CC00)"/>
<path id="Vector_5" d="M154.186 107.442C154.73 99.5849 158.652 92.3615 164.943 87.6237L165.5 87.2097C172.672 81.8117 177.137 73.5918 177.746 64.634C177.759 64.3492 177.771 64.0638 177.784 63.7661C176.05 67.3777 173.953 70.7304 171.584 73.7725C169.733 77.8372 166.872 81.4229 163.221 84.1802L162.665 84.5948C155.507 89.9799 151.028 98.2124 150.419 107.157C150.355 108.063 150.342 108.957 150.368 109.85H150.419C150.885 109.837 151.364 109.798 151.83 109.772C152.011 109.759 152.206 109.747 152.4 109.734C152.853 109.695 153.293 109.656 153.746 109.604C153.875 109.591 153.992 109.578 154.121 109.552C154.121 108.84 154.122 108.129 154.173 107.404L154.186 107.442Z" fill="var(--fill-0, #EBFF99)"/>
<path id="Vector_6" d="M480.578 0.0126415L0 187.441V207.079L305.214 82.9116L480.578 159.066V139.921L327.233 73.9539L480.578 11.5726V0V0.0126415Z" fill="var(--fill-0, #FCF8EE)"/>
<path id="Vector_7" d="M231.105 101.371C231.416 100.012 231.273 98.7043 230.768 97.4227L173.772 119.662C203.157 119.792 228.801 111.624 231.105 101.371Z" fill="var(--fill-0, #335FFF)"/>
</g>
<defs>
<linearGradient id="paint0_linear_1613_34556" x1="125.669" y1="64.1936" x2="193.189" y2="81.9281" gradientUnits="userSpaceOnUse">
<stop stop-color="white"/>
<stop offset="0.35" stop-color="#FBFFEC"/>
<stop offset="1" stop-color="#F2FFBF"/>
</linearGradient>
</defs>
</svg>
