<svg preserveAspectRatio="xMidYMax slice" width="100%" height="100%" overflow="visible" style="display: block;" viewBox="0 0 289.527 186.347" fill="none" xmlns="http://www.w3.org/2000/svg">
<g id="Group 632664">
<path id="Vector" d="M289.161 124.223C291.237 112.413 284.781 99.8247 262.459 90.1075C210.207 67.3639 107.845 72.0035 89.8216 64.1519L37.8616 47.297C35.2661 46.1614 32.0541 46.4048 29.4099 47.9459L4.49248 50.7199L1.63735 48.5299C-2.67778 51.4823 3.12982 63.0001 10.4298 66.2121L68.4244 91.4864C86.4474 99.338 85.6038 153.91 137.856 176.67C182.159 195.958 240.088 182.672 263.448 169.207C274.853 162.637 284.992 151.995 287.263 140.575L287.393 140.494L289.242 124.142L289.177 124.223H289.161Z" fill="var(--fill-0, #0E2433)"/>
<path id="Vector_2" d="M127.797 59.7747C112.873 58.5905 89.6426 54.7782 81.3693 53.1884C79.6984 52.864 76.3728 61.6565 75.4482 62.2891C74.8479 62.6947 76.0159 65.5498 77.1515 67.8047C85.9926 69.4918 100.625 70.1732 118.129 70.9194C119.621 69.1674 127.83 59.7909 127.797 59.7909V59.7747Z" fill="var(--fill-0, #0026AB)"/>
<path id="Vector_3" d="M63.4572 53.7263C63.4572 53.7263 8.67456 29.9282 4.473 33.3673C0.498543 36.6118 -3.20013 47.2049 4.473 50.7252L57.6658 75.0099L70.9194 66.0228L63.4572 53.7263Z" fill="var(--fill-0, #0E2433)"/>
<path id="Vector_4" d="M279.492 114.802C275.534 106.22 266.887 97.8658 251.557 90.8578C216.209 74.7166 159.22 72.6564 118.113 70.9206C117.967 71.099 117.853 71.2288 117.853 71.2288C118.891 71.3099 119.735 71.6182 120.335 71.9913C114.219 74.4895 108.947 77.2148 104.908 79.9402C100.868 82.6817 97.1211 86.0884 93.9091 89.9169C93.1142 89.6573 92.4166 89.268 92.0598 88.7164C92.0598 88.7002 92.2382 88.6029 92.222 88.5867C87.2093 80.6702 83.17 74.6679 78.7413 70.4664C78.4168 70.1582 77.768 69.0875 77.1191 67.8059C74.5235 67.303 72.4146 66.7353 70.8897 66.0377L59.3719 58.7539C58.1877 61.4306 57.6523 64.8373 57.6523 69.1848V75.0248C76.5675 83.6551 81.9046 143.742 136.736 168.79C183.229 190.024 239.65 175.392 261.485 160.581C272.143 153.346 281.082 141.633 282.055 129.061L282.168 128.98V110.99L279.492 114.818V114.802Z" fill="var(--fill-0, #0026AB)"/>
<path id="Vector_5" d="M251.558 73.5043C196.727 48.4733 89.8224 57.2982 70.9073 48.668L63.445 53.7293C61.6606 54.946 60.3628 56.5682 59.4219 58.6447C76.9581 70.0976 83.6579 127.184 136.737 151.42C183.23 172.655 239.651 158.022 261.486 143.211C283.322 128.4 298.051 94.7392 251.558 73.5043ZM105.428 71.9469C101.389 74.6885 97.6416 78.0952 94.4296 81.9236C93.6347 81.664 92.9371 81.2747 92.5802 80.7232C92.5802 80.7069 92.564 80.6907 92.5478 80.6745C87.5351 72.758 83.6904 66.6747 79.2617 62.4731C78.3695 61.6296 78.4181 60.6887 79.3428 60.056C80.2675 59.4233 81.9221 59.2124 83.593 59.5369C91.8664 61.1267 103.319 62.0351 118.244 63.2356C118.276 63.2356 118.309 63.2356 118.341 63.2356C119.379 63.3167 120.223 63.6249 120.823 63.998C114.707 66.4962 109.435 69.2216 105.396 71.9469H105.428Z" fill="var(--fill-0, #335FFF)"/>
<path id="Vector_6" d="M4.47266 33.3704L13.7194 27.0924C16.2014 25.4052 19.3809 25.1457 22.1062 26.3948L70.9028 48.6842L59.4337 58.6609L4.47266 33.3866V33.3704Z" fill="var(--fill-0, #0026AB)"/>
<path id="Vector_7" d="M93.0145 83.6252C93.4687 83.0412 94.4259 81.9219 94.4259 81.9219C93.631 81.6623 92.9334 81.273 92.5765 80.7214L92.5441 80.6727C87.5314 72.7563 83.6868 66.6729 79.2581 62.4714C78.3658 61.6278 78.4145 60.6869 79.3392 60.0542C80.2638 59.4216 81.9185 59.2107 83.5894 59.5351C91.8627 61.1249 103.316 62.0334 118.24 63.2338H118.338C119.376 63.3311 120.203 63.6394 120.82 64.0125C120.82 64.0125 122.604 63.2663 123.545 62.9094C126.724 61.7089 125.054 58.87 121.047 58.7078C120.998 58.7078 120.966 58.7078 120.917 58.7078C101.969 57.9129 87.4179 57.2965 77.0681 55.6093C74.9754 55.2687 72.8178 55.6418 71.5363 56.5178C70.2547 57.3938 70.0114 58.6429 71.0334 59.7136C76.0136 65.0345 79.9394 72.8536 85.0494 83.0412C85.0494 83.0574 85.0819 83.0899 85.0819 83.1061C86.1688 85.2636 91.4734 85.6043 92.9821 83.6414L93.0145 83.6252Z" fill="var(--fill-0, #0026AB)"/>
<path id="Vector_8" d="M122.686 82.3411C121.08 81.6111 120.755 80.3458 121.988 79.5185C123.221 78.6911 125.509 78.61 127.115 79.3562C128.721 80.1025 129.045 81.3516 127.812 82.1789C126.579 83.0063 124.292 83.0874 122.686 82.3411Z" fill="var(--fill-0, #0F39D4)"/>
<path id="Vector_9" d="M119.995 90.0833C118.389 89.3533 118.064 88.088 119.297 87.2607C120.53 86.4333 122.817 86.3522 124.423 87.0984C126.029 87.8447 126.354 89.0938 125.121 89.9211C123.888 90.7484 121.601 90.8295 119.995 90.0833Z" fill="var(--fill-0, #0F39D4)"/>
<path id="Vector_10" d="M118.143 98.4349C116.537 97.7049 116.213 96.4396 117.445 95.6122C118.678 94.7849 120.966 94.7038 122.572 95.45C124.178 96.1962 124.502 97.4453 123.269 98.2727C122.036 99.1 119.749 99.1811 118.143 98.4349Z" fill="var(--fill-0, #0F39D4)"/>
<path id="Vector_11" d="M119.409 107.497C117.803 106.767 117.478 105.502 118.711 104.675C119.944 103.847 122.231 103.766 123.837 104.512C125.443 105.259 125.768 106.508 124.535 107.335C123.302 108.163 121.015 108.244 119.409 107.497Z" fill="var(--fill-0, #0F39D4)"/>
<path id="Vector_12" d="M124.034 116.357C122.428 115.627 122.103 114.361 123.336 113.534C124.569 112.707 126.856 112.626 128.462 113.372C130.068 114.118 130.393 115.367 129.16 116.195C127.927 117.022 125.64 117.103 124.034 116.357Z" fill="var(--fill-0, #0F39D4)"/>
<path id="Vector_13" d="M130.116 124.517C128.51 123.787 128.185 122.522 129.418 121.694C130.651 120.867 132.938 120.786 134.544 121.532C136.15 122.278 136.475 123.527 135.242 124.355C134.009 125.182 131.722 125.263 130.116 124.517Z" fill="var(--fill-0, #0F39D4)"/>
<path id="Vector_14" d="M138.6 132.466C136.994 131.736 136.67 130.471 137.902 129.643C139.135 128.816 141.423 128.735 143.029 129.481C144.635 130.227 144.959 131.477 143.726 132.304C142.493 133.131 140.206 133.212 138.6 132.466Z" fill="var(--fill-0, #0F39D4)"/>
<path id="Vector_15" d="M148.885 139.689C147.279 138.959 146.955 137.693 148.188 136.866C149.42 136.039 151.708 135.958 153.314 136.704C154.92 137.45 155.244 138.699 154.011 139.527C152.779 140.354 150.491 140.435 148.885 139.689Z" fill="var(--fill-0, #0F39D4)"/>
<path id="Vector_16" d="M161.162 145.962C159.556 145.232 159.232 143.967 160.465 143.14C161.698 142.312 163.985 142.231 165.591 142.977C167.197 143.724 167.522 144.973 166.289 145.8C165.056 146.627 162.768 146.708 161.162 145.962Z" fill="var(--fill-0, #0F39D4)"/>
<path id="Vector_17" d="M175.002 151.185C173.396 150.455 173.072 149.19 174.305 148.362C175.538 147.535 177.825 147.454 179.431 148.2C181.037 148.946 181.361 150.195 180.129 151.023C178.896 151.85 176.608 151.931 175.002 151.185Z" fill="var(--fill-0, #0F39D4)"/>
<path id="Vector_18" d="M189.748 149.243C188.142 148.513 187.818 147.248 189.051 146.421C190.284 145.593 192.571 145.512 194.177 146.259C195.783 147.005 196.108 148.254 194.875 149.081C193.642 149.909 191.354 149.99 189.748 149.243Z" fill="var(--fill-0, #0F39D4)"/>
<path id="Vector_19" d="M176.932 141.88C175.326 141.15 175.002 139.885 176.234 139.058C177.467 138.23 179.755 138.149 181.361 138.895C182.967 139.642 183.291 140.891 182.058 141.718C180.825 142.545 178.538 142.626 176.932 141.88Z" fill="var(--fill-0, #0F39D4)"/>
<path id="Vector_20" d="M193.967 138.79C192.361 138.06 192.037 136.795 193.27 135.968C194.503 135.14 196.79 135.059 198.396 135.805C200.002 136.552 200.326 137.801 199.093 138.628C197.861 139.455 195.573 139.537 193.967 138.79Z" fill="var(--fill-0, #0F39D4)"/>
<path id="Vector_21" d="M208.909 133.658C207.303 132.928 206.978 131.662 208.211 130.835C209.444 130.008 211.731 129.926 213.337 130.673C214.943 131.419 215.268 132.668 214.035 133.495C212.802 134.323 210.515 134.404 208.909 133.658Z" fill="var(--fill-0, #0F39D4)"/>
<path id="Vector_22" d="M195.182 127.661C193.576 126.931 193.252 125.666 194.484 124.839C195.717 124.011 198.005 123.93 199.611 124.677C201.217 125.423 201.541 126.672 200.308 127.499C199.075 128.327 196.788 128.408 195.182 127.661Z" fill="var(--fill-0, #0F39D4)"/>
<path id="Vector_23" d="M179.077 131.997C177.471 131.267 177.146 130.002 178.379 129.175C179.612 128.347 181.899 128.266 183.505 129.012C185.111 129.759 185.436 131.008 184.203 131.835C182.97 132.663 180.683 132.744 179.077 131.997Z" fill="var(--fill-0, #0F39D4)"/>
<path id="Vector_24" d="M181.166 121.755C179.56 121.025 179.236 119.76 180.469 118.932C181.702 118.105 183.989 118.024 185.595 118.77C187.201 119.516 187.525 120.766 186.293 121.593C185.06 122.42 182.772 122.501 181.166 121.755Z" fill="var(--fill-0, #0F39D4)"/>
<path id="Vector_25" d="M165.448 124.341C163.842 123.611 163.517 122.346 164.75 121.518C165.983 120.691 168.27 120.61 169.876 121.356C171.482 122.102 171.807 123.352 170.574 124.179C169.341 125.006 167.054 125.087 165.448 124.341Z" fill="var(--fill-0, #0F39D4)"/>
<path id="Vector_26" d="M150.28 127.193C148.674 126.463 148.349 125.197 149.582 124.37C150.815 123.543 153.102 123.462 154.708 124.208C156.314 124.954 156.639 126.203 155.406 127.03C154.173 127.858 151.886 127.939 150.28 127.193Z" fill="var(--fill-0, #0F39D4)"/>
<path id="Vector_27" d="M140.077 117.775C138.471 117.045 138.146 115.779 139.379 114.952C140.612 114.125 142.899 114.044 144.505 114.79C146.111 115.536 146.436 116.785 145.203 117.613C143.97 118.44 141.683 118.521 140.077 117.775Z" fill="var(--fill-0, #0F39D4)"/>
<path id="Vector_28" d="M154.936 115.24C153.33 114.51 153.005 113.244 154.238 112.417C155.471 111.59 157.759 111.508 159.365 112.255C160.971 113.001 161.295 114.25 160.062 115.077C158.829 115.905 156.542 115.986 154.936 115.24Z" fill="var(--fill-0, #0F39D4)"/>
<path id="Vector_29" d="M169.373 112.466C167.767 111.736 167.443 110.471 168.676 109.643C169.909 108.816 172.196 108.735 173.802 109.481C175.408 110.227 175.733 111.477 174.5 112.304C173.267 113.131 170.979 113.212 169.373 112.466Z" fill="var(--fill-0, #0F39D4)"/>
<path id="Vector_30" d="M151.237 105.115C149.631 104.385 149.306 103.119 150.539 102.292C151.772 101.465 154.059 101.383 155.665 102.13C157.271 102.876 157.596 104.125 156.363 104.952C155.13 105.78 152.843 105.861 151.237 105.115Z" fill="var(--fill-0, #0F39D4)"/>
<path id="Vector_31" d="M136.866 107.661C135.26 106.931 134.935 105.666 136.168 104.839C137.401 104.011 139.688 103.93 141.294 104.677C142.9 105.423 143.225 106.672 141.992 107.499C140.759 108.327 138.472 108.408 136.866 107.661Z" fill="var(--fill-0, #0F39D4)"/>
<path id="Vector_32" d="M134.838 97.638C133.232 96.908 132.908 95.6427 134.141 94.8153C135.374 93.988 137.661 93.9069 139.267 94.6531C140.873 95.3993 141.197 96.6485 139.965 97.4758C138.732 98.3031 136.444 98.3842 134.838 97.638Z" fill="var(--fill-0, #0F39D4)"/>
<path id="Vector_33" d="M161.471 135.126C159.865 134.396 159.541 133.131 160.774 132.304C162.006 131.476 164.294 131.395 165.9 132.141C167.506 132.888 167.83 134.137 166.597 134.964C165.364 135.791 163.077 135.873 161.471 135.126Z" fill="var(--fill-0, #0F39D4)"/>
<path id="Vector_34" d="M204.819 145.618C203.213 144.888 202.888 143.623 204.121 142.796C205.354 141.968 207.641 141.887 209.247 142.634C210.853 143.38 211.178 144.629 209.945 145.456C208.712 146.284 206.425 146.365 204.819 145.618Z" fill="var(--fill-0, #0F39D4)"/>
<path id="Vector_35" d="M136.83 88.7904C135.224 88.0604 134.9 86.795 136.133 85.9677C137.366 85.1404 139.653 85.0592 141.259 85.8055C142.865 86.5517 143.19 87.8008 141.957 88.6281C140.724 89.4555 138.436 89.5366 136.83 88.7904Z" fill="var(--fill-0, #0F39D4)"/>
<path id="Vector_36" d="M150.557 95.0638C148.951 94.3338 148.627 93.0685 149.859 92.2411C151.092 91.4138 153.38 91.3327 154.986 92.0789C156.592 92.8251 156.916 94.0742 155.683 94.9016C154.45 95.7289 152.163 95.81 150.557 95.0638Z" fill="var(--fill-0, #0F39D4)"/>
<path id="Vector_37" d="M165.12 101.704C163.514 100.974 163.189 99.7091 164.422 98.8817C165.655 98.0544 167.942 97.9733 169.548 98.7195C171.154 99.4658 171.479 100.715 170.246 101.542C169.013 102.37 166.726 102.451 165.12 101.704Z" fill="var(--fill-0, #0F39D4)"/>
<path id="Vector_38" d="M183.44 110.083C181.834 109.353 181.509 108.088 182.742 107.261C183.975 106.433 186.262 106.352 187.868 107.098C189.474 107.845 189.799 109.094 188.566 109.921C187.333 110.748 185.046 110.83 183.44 110.083Z" fill="var(--fill-0, #0F39D4)"/>
<path id="Vector_39" d="M195.28 115.482C193.674 114.752 193.349 113.486 194.582 112.659C195.815 111.832 198.102 111.751 199.708 112.497C201.314 113.243 201.639 114.492 200.406 115.32C199.173 116.147 196.886 116.228 195.28 115.482Z" fill="var(--fill-0, #0F39D4)"/>
<path id="Vector_40" d="M207.561 121.095C205.955 120.365 205.63 119.1 206.863 118.272C208.096 117.445 210.384 117.364 211.99 118.11C213.596 118.856 213.92 120.105 212.687 120.933C211.454 121.76 209.167 121.841 207.561 121.095Z" fill="var(--fill-0, #0F39D4)"/>
<path id="Vector_41" d="M221.705 127.548C220.099 126.818 219.775 125.553 221.008 124.725C222.241 123.898 224.528 123.817 226.134 124.563C227.74 125.31 228.065 126.559 226.832 127.386C225.599 128.213 223.311 128.294 221.705 127.548Z" fill="var(--fill-0, #0F39D4)"/>
<path id="Vector_42" d="M140.221 76.3576C138.615 75.6275 136.311 75.6924 135.095 76.5198C133.878 77.3471 134.186 78.6125 135.792 79.3425C137.398 80.0725 139.702 80.0076 140.919 79.1802C142.135 78.3529 141.827 77.0876 140.221 76.3576Z" fill="var(--fill-0, #0F39D4)"/>
<path id="Vector_43" d="M154.565 73.7091C152.959 72.9791 150.655 73.044 149.438 73.8713C148.222 74.6987 148.53 75.964 150.136 76.694C151.742 77.424 154.046 77.3591 155.262 76.5318C156.479 75.7045 156.171 74.4391 154.565 73.7091Z" fill="var(--fill-0, #0F39D4)"/>
<path id="Vector_44" d="M170.803 72.6193C169.197 71.8893 166.893 71.9542 165.677 72.7815C164.46 73.6088 164.768 74.8742 166.374 75.6042C167.98 76.3342 170.284 76.2693 171.501 75.4419C172.717 74.6146 172.409 73.3493 170.803 72.6193Z" fill="var(--fill-0, #0F39D4)"/>
<path id="Vector_45" d="M187.315 73.4162C185.709 72.6861 183.405 72.751 182.188 73.5784C180.972 74.4057 181.28 75.671 182.886 76.401C184.492 77.131 186.796 77.0662 188.012 76.2388C189.229 75.4115 188.921 74.1462 187.315 73.4162Z" fill="var(--fill-0, #0F39D4)"/>
<path id="Vector_46" d="M202.889 75.1427C201.283 74.4127 198.979 74.4776 197.763 75.3049C196.546 76.1323 196.854 77.3976 198.46 78.1276C200.066 78.8576 202.37 78.7927 203.586 77.9654C204.803 77.1381 204.495 75.8727 202.889 75.1427Z" fill="var(--fill-0, #0F39D4)"/>
<path id="Vector_47" d="M218.541 78.2208C216.935 77.4908 214.632 77.5557 213.415 78.3831C212.198 79.2104 212.507 80.4757 214.113 81.2057C215.719 81.9357 218.022 81.8708 219.239 81.0435C220.456 80.2162 220.147 78.9508 218.541 78.2208Z" fill="var(--fill-0, #0F39D4)"/>
<path id="Vector_48" d="M233.256 82.4162C231.65 81.6861 229.347 81.751 228.13 82.5784C226.913 83.4057 227.221 84.671 228.827 85.401C230.433 86.131 232.737 86.0662 233.954 85.2388C235.17 84.4115 234.862 83.1462 233.256 82.4162Z" fill="var(--fill-0, #0F39D4)"/>
<path id="Vector_49" d="M246.737 87.8927C245.131 87.1627 242.827 87.2276 241.61 88.0549C240.394 88.8823 240.702 90.1476 242.308 90.8776C243.914 91.6076 246.217 91.5427 247.434 90.7154C248.651 89.8881 248.343 88.6227 246.737 87.8927Z" fill="var(--fill-0, #0F39D4)"/>
<path id="Vector_50" d="M258.647 94.4318C257.041 93.7018 254.737 93.7667 253.52 94.594C252.304 95.4213 252.612 96.6867 254.218 97.4167C255.824 98.1467 258.128 98.0818 259.344 97.2545C260.561 96.4271 260.253 95.1618 258.647 94.4318Z" fill="var(--fill-0, #0F39D4)"/>
<path id="Vector_51" d="M258.092 102.858C256.486 102.128 254.182 102.192 252.966 103.02C251.749 103.847 252.057 105.112 253.663 105.842C255.269 106.572 257.573 106.508 258.79 105.68C260.006 104.853 259.698 103.588 258.092 102.858Z" fill="var(--fill-0, #0F39D4)"/>
<path id="Vector_52" d="M242.615 97.3185C241.009 96.5885 238.706 96.6534 237.489 97.4807C236.273 98.3081 236.581 99.5734 238.187 100.303C239.793 101.033 242.096 100.969 243.313 100.141C244.53 99.3138 244.221 98.0485 242.615 97.3185Z" fill="var(--fill-0, #0F39D4)"/>
<path id="Vector_53" d="M240.51 107.205C238.904 106.475 236.6 106.54 235.384 107.367C234.167 108.195 234.475 109.46 236.081 110.19C237.687 110.92 239.991 110.855 241.208 110.028C242.424 109.201 242.116 107.935 240.51 107.205Z" fill="var(--fill-0, #0F39D4)"/>
<path id="Vector_54" d="M234.373 116.358C232.767 115.628 230.464 115.692 229.247 116.52C228.03 117.347 228.339 118.612 229.945 119.342C231.551 120.072 233.854 120.008 235.071 119.18C236.288 118.353 235.979 117.088 234.373 116.358Z" fill="var(--fill-0, #0F39D4)"/>
<path id="Vector_55" d="M220.213 140.079C218.607 139.349 218.283 138.084 219.516 137.257C220.749 136.429 223.036 136.348 224.642 137.095C226.248 137.841 226.572 139.09 225.34 139.917C224.107 140.745 221.819 140.826 220.213 140.079Z" fill="var(--fill-0, #0F39D4)"/>
<path id="Vector_56" d="M234.131 133.224C232.525 132.494 232.201 131.229 233.434 130.401C234.667 129.574 236.954 129.493 238.56 130.239C240.166 130.985 240.49 132.234 239.257 133.062C238.025 133.889 235.737 133.97 234.131 133.224Z" fill="var(--fill-0, #0F39D4)"/>
<path id="Vector_57" d="M247.873 121.893C246.267 121.163 243.964 121.228 242.747 122.055C241.53 122.882 241.839 124.148 243.445 124.878C245.051 125.608 247.354 125.543 248.571 124.715C249.788 123.888 249.479 122.623 247.873 121.893Z" fill="var(--fill-0, #0F39D4)"/>
<path id="Vector_58" d="M221.158 110.045C219.552 109.315 217.249 109.38 216.032 110.207C214.816 111.035 215.124 112.3 216.73 113.03C218.336 113.76 220.639 113.695 221.856 112.868C223.073 112.04 222.764 110.775 221.158 110.045Z" fill="var(--fill-0, #0F39D4)"/>
<path id="Vector_59" d="M225.619 100.412C224.013 99.6822 221.71 99.7471 220.493 100.574C219.276 101.402 219.585 102.667 221.191 103.397C222.797 104.127 225.1 104.062 226.317 103.235C227.534 102.408 227.225 101.142 225.619 100.412Z" fill="var(--fill-0, #0F39D4)"/>
<path id="Vector_60" d="M207.998 103.541C206.392 102.811 204.089 102.876 202.872 103.703C201.655 104.531 201.964 105.796 203.57 106.526C205.176 107.256 207.479 107.191 208.696 106.364C209.913 105.536 209.604 104.271 207.998 103.541Z" fill="var(--fill-0, #0F39D4)"/>
<path id="Vector_61" d="M209.475 94.4552C207.869 93.7252 205.565 93.7901 204.349 94.6174C203.132 95.4448 203.44 96.7101 205.046 97.4401C206.652 98.1701 208.956 98.1052 210.172 97.2779C211.389 96.4505 211.081 95.1852 209.475 94.4552Z" fill="var(--fill-0, #0F39D4)"/>
<path id="Vector_62" d="M211.533 85.6349C209.927 84.9049 207.624 84.9698 206.407 85.7971C205.191 86.6245 205.499 87.8898 207.105 88.6198C208.711 89.3498 211.014 89.2849 212.231 88.4576C213.448 87.6302 213.139 86.3649 211.533 85.6349Z" fill="var(--fill-0, #0F39D4)"/>
<path id="Vector_63" d="M192.928 81.9083C191.322 81.1783 189.018 81.2432 187.802 82.0706C186.585 82.8979 186.893 84.1632 188.499 84.8932C190.105 85.6232 192.409 85.5583 193.626 84.731C194.842 83.9037 194.534 82.6383 192.928 81.9083Z" fill="var(--fill-0, #0F39D4)"/>
<path id="Vector_64" d="M191.385 90.5021C189.779 89.7721 187.475 89.837 186.259 90.6643C185.042 91.4916 185.35 92.757 186.956 93.487C188.562 94.217 190.866 94.1521 192.083 93.3248C193.299 92.4974 192.991 91.2321 191.385 90.5021Z" fill="var(--fill-0, #0F39D4)"/>
<path id="Vector_65" d="M189.326 98.9435C187.72 98.2135 185.417 98.2784 184.2 99.1057C182.984 99.9331 183.292 101.198 184.898 101.928C186.504 102.658 188.807 102.594 190.024 101.766C191.241 100.939 190.932 99.6735 189.326 98.9435Z" fill="var(--fill-0, #0F39D4)"/>
<path id="Vector_66" d="M172.83 90.463C171.224 89.733 168.921 89.7979 167.704 90.6252C166.487 91.4526 166.796 92.7179 168.402 93.4479C170.008 94.1779 172.311 94.113 173.528 93.2857C174.745 92.4584 174.436 91.193 172.83 90.463Z" fill="var(--fill-0, #0F39D4)"/>
<path id="Vector_67" d="M174.498 82.1115C172.892 81.3815 170.589 81.4463 169.372 82.2737C168.155 83.101 168.464 84.3664 170.07 85.0964C171.676 85.8264 173.979 85.7615 175.196 84.9341C176.413 84.1068 176.104 82.8415 174.498 82.1115Z" fill="var(--fill-0, #0F39D4)"/>
<path id="Vector_68" d="M156.428 82.9865C154.822 82.2565 152.518 82.3213 151.302 83.1487C150.085 83.976 150.393 85.2414 151.999 85.9714C153.605 86.7014 155.909 86.6365 157.126 85.8091C158.342 84.9818 158.034 83.7165 156.428 82.9865Z" fill="var(--fill-0, #0F39D4)"/>
<path id="Vector_69" d="M227.694 90.1974C226.088 89.4674 223.784 89.5323 222.567 90.3596C221.351 91.187 221.659 92.4523 223.265 93.1823C224.871 93.9123 227.175 93.8474 228.391 93.0201C229.608 92.1927 229.3 90.9274 227.694 90.1974Z" fill="var(--fill-0, #0F39D4)"/>
<path id="Vector_70" d="M254.686 111.186C253.08 110.456 250.776 110.521 249.56 111.348C248.343 112.175 248.651 113.441 250.257 114.171C251.863 114.901 254.167 114.836 255.383 114.008C256.6 113.181 256.292 111.916 254.686 111.186Z" fill="var(--fill-0, #0F39D4)"/>
<path id="Vector_71" d="M157.905 44.1189C144.457 44.1838 133.54 41.5396 133.523 38.2302C133.523 34.9209 144.392 32.1793 157.841 32.1145C171.289 32.0496 182.206 34.6938 182.223 38.0031C182.239 41.3125 171.354 44.054 157.905 44.1189Z" fill="var(--fill-0, #0E2433)"/>
<path id="Vector_72" d="M147.327 41.5616C135.858 41.6103 126.514 32.3636 126.449 20.8782C126.401 9.40911 135.647 0.0650803 147.133 0.000191227C158.602 -0.0484756 167.946 9.19822 168.011 20.6836C168.06 32.1527 158.813 41.4967 147.327 41.5616Z" fill="var(--fill-0, #CCFF00)"/>
<path id="Vector_73" d="M136.734 34.0526C134.48 32.2844 131.835 31.23 129.094 30.9217C129.353 31.3922 129.645 31.8464 129.937 32.3006C132.111 32.69 134.171 33.6146 135.972 35.026L137.497 36.2264C141.228 39.1464 145.997 40.1522 150.588 38.9518C155.179 37.7513 158.862 34.5555 160.695 30.1917L160.922 29.6564C162.755 25.2764 162.447 20.4097 160.062 16.3055C157.694 12.2012 153.622 9.50834 148.917 8.90812L147.003 8.66478C142.964 8.14567 139.46 5.95566 137.237 2.59766C136.88 2.79232 136.524 3.00321 136.167 3.23032C138.584 6.91278 142.428 9.3299 146.841 9.89768L148.755 10.141C153.07 10.6926 156.801 13.1746 158.975 16.9381C161.149 20.7017 161.441 25.179 159.754 29.1859L159.527 29.7213C157.856 33.7444 154.465 36.6644 150.264 37.7675C146.046 38.8706 141.666 37.946 138.243 35.2693L136.718 34.0689L136.734 34.0526Z" fill="var(--fill-0, white)"/>
</g>
</svg>
