<svg width="424" height="207" viewBox="0 0 424 207" fill="none" xmlns="http://www.w3.org/2000/svg">
<g clip-path="url(#clip0_1593_380)">
<path d="M149.953 82.4183C179.39 82.5737 201.383 91.0264 199.092 101.279C196.801 111.544 171.079 119.739 141.643 119.57C112.206 119.415 90.2129 110.962 92.5042 100.709C94.7954 90.444 120.517 82.25 149.953 82.4183Z" fill="#0F39D4"/>
<path d="M154.004 89.8873C167.131 69.5638 161.318 42.4576 141.008 29.3315C120.697 16.2054 93.5907 22.0303 80.4646 42.3408C67.3385 62.6642 73.1508 89.7705 93.4613 102.897C113.772 116.023 140.879 110.198 154.018 89.8873H154.004Z" fill="#CCFF00"/>
<path d="M90.1217 43.9851L89.7077 44.542C86.0054 49.5128 80.7498 53.0076 74.847 54.561C74.4716 55.9202 74.1869 57.2663 73.9539 58.6385C81.423 57.1628 88.1282 52.9688 92.7366 46.7941L93.1512 46.2372C97.8631 39.9201 105.06 35.9724 112.905 35.3769C120.762 34.7944 128.465 37.655 134.044 43.2083C139.623 48.7616 142.523 56.4506 141.966 64.3082C141.423 72.1657 137.5 79.389 131.209 84.1268L130.665 84.5415C123.494 89.9265 119.028 98.1591 118.42 107.104C118.355 108.01 118.342 108.903 118.368 109.797C119.623 109.758 120.879 109.667 122.122 109.525C122.122 108.813 122.122 108.088 122.173 107.363C122.717 99.5056 126.64 92.2823 132.931 87.5445L133.474 87.1305C140.646 81.7324 145.112 73.5125 145.72 64.5547C146.341 55.6098 143.041 46.846 136.685 40.5289C130.329 34.1989 121.552 30.9496 112.607 31.6098C103.662 32.2699 95.4685 36.7748 90.0964 43.9592L90.1217 43.9851Z" fill="url(#paint0_linear_1593_380)"/>
<path d="M151.286 38.613C151.428 46.3541 149.953 54.2503 146.652 61.8101C135.792 86.7161 108.931 99.6736 83.3647 93.9132C87.6107 99.0523 93.0864 103.324 99.6236 106.172C121.798 115.842 147.597 105.706 157.267 83.5313C163.998 68.1011 161.124 50.9107 151.286 38.613Z" fill="#A3CC00"/>
<path d="M122.186 107.363C122.73 99.5055 126.652 92.2822 132.943 87.5444L133.5 87.1304C140.672 81.7324 145.137 73.5125 145.746 64.5546C145.759 64.2698 145.771 63.9845 145.784 63.6868C144.05 67.2984 141.953 70.6511 139.584 73.6931C137.733 77.7578 134.872 81.3436 131.221 84.1008L130.665 84.5155C123.507 89.9005 119.028 98.1331 118.419 107.078C118.355 107.984 118.342 108.877 118.368 109.771H118.419C118.885 109.758 119.364 109.719 119.83 109.693C120.011 109.68 120.206 109.667 120.4 109.654C120.853 109.615 121.293 109.577 121.746 109.525C121.875 109.512 121.992 109.499 122.121 109.473C122.121 108.761 122.122 108.049 122.173 107.324L122.186 107.363Z" fill="#EBFF99"/>
<path d="M448.578 -0.0667042L-32 187.362V207L273.214 82.8323L448.578 158.987V139.842L295.233 73.8745L448.578 11.4933V-0.0793457V-0.0667042Z" fill="#FCF8EE"/>
<path d="M199.105 101.292C199.416 99.9326 199.273 98.6248 198.768 97.3433L141.772 119.583C171.157 119.712 196.801 111.544 199.105 101.292Z" fill="#335FFF"/>
</g>
<defs>
<linearGradient id="paint0_linear_1593_380" x1="93.6689" y1="64.1143" x2="161.189" y2="81.8487" gradientUnits="userSpaceOnUse">
<stop stop-color="white"/>
<stop offset="0.35" stop-color="#FBFFEC"/>
<stop offset="1" stop-color="#F2FFBF"/>
</linearGradient>
<clipPath id="clip0_1593_380">
<rect width="424" height="207" fill="white"/>
</clipPath>
</defs>
</svg>
